<?xml version="1.0" encoding="utf-8"?>
<!-- Generator: Adobe Illustrator 27.5.0, SVG Export Plug-In . SVG Version: 6.00 Build 0)  -->
<svg version="1.1" id="Layer_1" xmlns="http://www.w3.org/2000/svg" xmlns:xlink="http://www.w3.org/1999/xlink" x="0px" y="0px"
	 viewBox="0 0 4000 4000" style="enable-background:new 0 0 4000 4000;" xml:space="preserve">
<g>
	<g>
		<g>
			<rect style="fill:transparent;" width="4000" height="4000"/>
		</g>
	</g>
	<g>
		<g>
			<g>
				<path style="fill:#371A45;" d="M2449.012,2866.173c-0.93,0-1.875-0.088-2.825-0.264c-8.369-1.548-13.894-9.59-12.344-17.959
					l161.128-869.512c1.55-8.369,9.568-13.901,17.959-12.344c8.369,1.548,13.894,9.59,12.344,17.959l-161.128,869.512
					C2462.772,2860.987,2456.295,2866.173,2449.012,2866.173z"/>
			</g>
		</g>
		<g>
			<g>
				<path style="fill:#371A45;" d="M1561.364,2866.173c-7.285,0-13.76-5.186-15.134-12.607l-161.128-869.512
					c-1.55-8.369,3.975-16.411,12.344-17.959c8.374-1.538,16.411,3.975,17.959,12.344l161.128,869.512
					c1.55,8.369-3.975,16.411-12.344,17.959C1563.241,2866.085,1562.294,2866.173,1561.364,2866.173z"/>
			</g>
		</g>
		<g>
			<g>
				<path style="fill:#FFFFFF;" d="M2421.015,2924.418h-852.312c24.829-116.201,93.187-198.737,168.086-256.375
					c120.55-92.878,258.087-121.133,258.087-121.133s140.825,28.939,262.403,124.455
					C2330.465,2728.866,2396.665,2810.478,2421.015,2924.418z"/>
			</g>
		</g>
		<g>
			<g>
				<path style="fill:#371A45;" d="M2440.067,2939.845h-890.405l3.979-18.628c27.437-128.403,112.08-236.514,244.778-312.642
					c99.441-57.051,189.556-75.991,193.342-76.768l3.103-0.64l3.103,0.64c3.787,0.776,93.904,19.717,193.342,76.768
					c132.7,76.128,217.344,184.238,244.778,312.642L2440.067,2939.845z M1588.214,2909.024h813.301
					c-29.553-112.524-105.083-204.39-224.763-273.271c-85.208-49.038-165.327-69.224-181.887-73.062
					c-16.56,3.838-96.68,24.023-181.887,73.062C1693.3,2704.635,1617.77,2796.5,1588.214,2909.024z"/>
			</g>
		</g>
		<g>
			<g>
				<g>
					<path style="fill:#00BDFF;" d="M2996.167,1430.932c0,10.065-0.118,20.129-0.414,30.135
						c-15.926,536.271-455.635,966.092-995.753,966.092c-540.06,0-979.827-429.822-995.753-966.092
						c-0.296-10.005-0.414-20.07-0.414-30.135c0-125.986,23.386-246.467,66.072-357.415
						c141.912-369.078,497.195-632.299,914.703-638.634c5.091-0.118,10.242-0.118,15.393-0.118s10.361,0,15.511,0.118
						c417.567,6.394,772.732,269.615,914.584,638.634C2972.781,1184.465,2996.167,1304.946,2996.167,1430.932z"/>
				</g>
			</g>
			<g>
				<defs>
					<circle id="SVGID_1_" cx="2000.006" cy="1430.962" r="996.192"/>
				</defs>
				<clipPath id="SVGID_00000052821725603834365670000015327758481418924459_">
					<use xlink:href="#SVGID_1_"  style="overflow:visible;"/>
				</clipPath>
				<g style="clip-path:url(#SVGID_00000052821725603834365670000015327758481418924459_);">
					<g>
						<g>
							<path style="fill:#77E236;" d="M2524.705,1984.288c-4.631-49.141-32.07-95.243-72.91-122.435
								c-52.425-34.905-64.335-111.35-71.596-166.201c-5.856-44.237-33.702-78.633-76.843-48.13
								c-99.131,70.093-242.887-36.537-271.091-138.793c-24.626-109.398,1.349-205.098,56.908-298.118
								c38.567-64.57,119.686-84.004,184.813-52.124c76.757,37.573,196.43-78.664,208.909-154.575
								c1.423-8.655,2.349-20.355-0.703-27.264c-31.071-69.8-137.47-74.287-173.037-9.522
								c-23.03,41.935-70.648,57.181-113.174,34.512c-78.159-41.664-102.763-6.869-129.363,69.849
								c-8.575,24.732-8.679,69.462-39.332,50.456c-30.13-18.682-55.955-55.964-40.301-91.439
								c38.18-86.526,73.702-178.393,96.519-271.637c1.489-6.086,7.566-14.337,11.775-14.778
								c97.04-10.175,86.87-135.287,105.89-205.033c6.706-24.589,1.578-35.836-14.28-45.558
								c-16.19-9.924-23.722,1.337-29.985,18.621c-10.506,28.996-20.821,58.124-31.501,87.005
								c-5.482,14.824-7.471,37.357-23.966,34.92c-19.319-2.854-29.25-26.38-28.12-47.765
								c3.236-61.241,19.471-129.613,56.75-179.151c28.222-37.502,82.724-64.623,126-35.823
								c53.745,35.766,95.632,32.14,154.462,1.92c24.715-12.695,51.288-26.433,77.435-34.316
								c44.165-13.315,75.71-48.865,86.873-93.761c11.852-44.779,47.888-77.053,92.832-85.587
								c28.325-5.378,46.621-21.046,54.886-55.195c14.711-60.787,62.687-106.668,120.537-126.195
								c86.018-29.034,157.04-24.239,219.376,39.991c17.015,17.532,34.751,10.704,51.376,7.129
								c43.492-9.354,89.94-16.495,131.219-26.79c31.288-7.803,76.219,7.014,96.432,32.083
								c13.635,16.911,29.474,18.793,45.111,16.556c21.48-3.073,44.61-3.473,64.924-5.822c49.019-5.668,69.885,4.402,95.686,48.589
								c10.226,43.313-18.589,101.194-59.157,111.711c-11.783,3.055-26.032,5.053-39.567,5.276
								c-37.947,0.623-44.244,24.489-31.531,72.438c27.28,102.888-6.843,254.401-116.594,292.565
								c-26.617,9.256-41.359,19.698-28.931,61.983c6.502,22.122,10.198,48.268-0.709,71.14
								c-25.007,52.434-38.462,111.6-22.299,167.963c12.71,44.322-29.852,77.768-69.742,54.362
								c-43.339-25.43-85.629-54.42-125.919-85.046c-31.134-23.665-48.903-16.212-62.105,25.384
								c-11.38,35.856-30.212,72.254-38.912,106.905c-11.083,44.143-48.112,74.655-88.655,40.802
								c-46.298-29.465-71.148-40.708-118.916-28.655c-16.913,4.268-35.885-2.298-52.248-14.719
								c-16.625-12.62-35.899-26.624-44.633,7.577c-8.227,32.212,18.401,30.19,30.375,39.989
								c21.723,17.776,45.427,31.839,68.179,46.324c39.95,25.435,44.429,65.762,18.434,103.553
								c-25.351,36.854-73.077,67.246-117.247,36.741c-29.751-18.899-58.999-38.712-88.632-57.649
								c-14.047-8.976-27.274-24.888-40.113,7.487c-13.611,34.323,6.106,36.88,19.124,45.68
								c51.81,35.022,103.856,69.569,156.859,102.705c45.609,28.513,60.874,86.411,36.679,133.673
								c-49.904,97.484-40.609,202.925-5.062,312.442c14.543,44.806,25.443,89.084,35.236,135.39
								c19.976,91.862-23.187,228.948-124.692,253.703c-40.402,9.036-73.749-19.111-85.372-56.211
								C2541.044,2051.429,2533.013,2017.284,2524.705,1984.288z"/>
						</g>
					</g>
					<g>
						<g>
							<path style="fill:#77E236;" d="M613.546,1355.028c-42.333-87.121-35.861-155.331,61.271-192.833
								c143.502-62.359,285.157-128.945,424.682-199.245c23.535-11.858,47.673-26.13,68.615-0.202
								c17.699,21.914,16.481,49.529,7.481,78.733c-15.97,51.823,22.509,64.796,58.721,82.373
								c30.498,14.804,64.063-4.217,89.161-29.389c22.07-22.135-0.474-49.604-4.961-74.154c-3.14-17.176-13.011-35.495,0.088-50.628
								c13.528-15.63,27.396-0.837,38.977,7.176c23.217,16.065,45.338,18.581,71.11,3.921c22.563-12.835,46.727-12.107,64.03,13.906
								c17.122,25.74,14.452,57.322,4.109,85.99c-42.104,116.701-89.469,235.075-130.639,348.624
								c-17.676,48.751-71.915,65.425-115.156,83.454c-43.385,18.089-44.472,66.338-25.694,102.739
								c7.742,15.008,16.346,25.918,30.112,20.357c54.819-22.143,100.626,17.867,141.064,46.023
								c31.046,21.617,73.659,35.113,110.898,15.639c44.554-23.3,81.135-20.746,125.084,5.712
								c34.453,20.741,83.001,51.866,125.973,39.691c56.033-15.876,85.251,146.296,73.978,188.115
								c-30.854,114.459-72.853,236.832-115.978,349.369c-23.433,61.151-27.283,122.874-7.227,182.887
								c10.036,30.03,18.003,65.3,25.407,98.558c4.586,20.598,19.439,45.675,8.394,61.725c-13.76,19.998-34.322-0.953-50.278-10.447
								c-53.936-32.376-87.699-93.093-103.532-151.885c-11.749-43.628-25.466-88.436-34.478-132.326
								c-17.934-87.337-48.934-179.929-129.536-230.584c-72.937-50.202-99.562-203.978-77.49-281.182
								c5.771-20.184,31.872-41.776,11.81-64.399c-20.907-23.575-48.856-54.283-77.153-43.054
								c-57.981,23.008-121.685-13.224-166.468-47.759c-43.658-33.667-87.769-67.545-136.399-94.38
								c-71.479-38.787-91.46-122.834-116.114-191.717c-20.928-58.471-106.307-123.785-168.85-115.776
								C648.77,1265.926,633.936,1318.155,613.546,1355.028z"/>
						</g>
					</g>
					<g>
						<g>
							<path style="fill:#77E236;" d="M3823.604,1291.182c0.559,1.756,1.471,3.467,1.623,5.271
								c2.33,27.571,33.557,55.79,8.664,80.194c-23.727,23.262-71.367,47.308-105.268,28.978
								c-51.623-16.528-72.043-13.243-116.628,11.454c-35.902,19.887-82.225,19.222-109.939-15.907
								c-32.049-38.096-29.149-90.506-12.947-134.315c25.26-68.299,91.89-139.515,168.312-135.245
								C3733.229,1135.848,3800.977,1222.803,3823.604,1291.182z"/>
						</g>
					</g>
					<g>
						<g>
							<path style="fill:#77E236;" d="M1583.99,464.617c17.984-9.86,37.118-20.399,54.046-29.349
								c36.212-19.147,98.861-72.987,131.861-15.199c47.228,82.705,57.351,159.824,27.161,244.631
								c-25.699,72.191-56.981,149.773-81.541,226.146c-20.591,64.031-46.137,72.073-87.822,35.891
								c-24.01-20.84-51.698-39.93-61.214-73.355c-15.609-54.826-55.731-95.91-104.567-122.441
								c-27.047-14.694-56.051-36.566-46.756-86.931c8.03-43.508,17.517-98.191,61.104-120.34
								c35.408-17.993,71.849-39.008,107.818-58.726C1584.05,464.835,1584.02,464.726,1583.99,464.617z"/>
						</g>
					</g>
					<g>
						<g>
							<path style="fill:#77E236;" d="M1294.353,872.558c-30.857,18.84-57.394,32.199-85.988,20.26
								c-12.069-5.039-22.176-14.872-24.564-29.625c-3.28-20.263,12.848-24.137,23.475-30.481
								c17.884-10.676,36.419-19.508,54.567-29.709c32.275-18.143,69.026-27.858,79.739,20.695
								C1351.438,868.38,1305.797,854.747,1294.353,872.558z"/>
						</g>
					</g>
					<g>
						<g>
							<path style="fill:#77E236;" d="M3241.878,1045.052c44.13-3.824,109.088,29.304,130.458,62.276
								c13.649,21.06-5.749,33.314-16.778,35.234c-33.146,5.769-110.873-35.343-130.451-65.557
								C3217.927,1065.923,3224.049,1052.548,3241.878,1045.052z"/>
						</g>
					</g>
					<g>
						<g>
							<path style="fill:#77E236;" d="M2772.567,1754.776c-7.224-37.791-10.298-87.014,25.48-110.978
								c26.759-17.924,30.508,21.448,35.832,43.263c9.149,37.486,12.875,86.836-24.409,110.993
								C2779.582,1817.419,2782.985,1774.295,2772.567,1754.776z"/>
						</g>
					</g>
					<g>
						<g>
							<path style="fill:#77E236;" d="M3541.114,384.76c6.843,46.211-35.695,134.212-71.348,143.19
								c-9.377,2.361-25.459-8.505-20.538-20.86c15.387-43.153,28.166-95.687,66.445-122.623
								C3522.536,379.638,3537.804,372.502,3541.114,384.76z"/>
						</g>
					</g>
					<g>
						<g>
							<path style="fill:#77E236;" d="M3522.228,1086.364c-13.351-0.575-38.223,31.829-46.679-10.569
								c-9.031-45.285,20.454-61.797,50.646-68.238c16.118-3.439,40.453-27.692,48.725,3.278
								C3587.622,1049.923,3559.072,1079.927,3522.228,1086.364z"/>
						</g>
					</g>
					<g>
						<g>
							<path style="fill:#77E236;" d="M3927.402,1308.173c-2.22,14.416,27.472,34.134-1.797,41.818
								c-30.54,8.017-46.347-19.95-53.319-49.293c-4.01-16.876-25.244-43.759-1.273-51.174
								C3912.409,1236.716,3914.047,1281.967,3927.402,1308.173z"/>
						</g>
					</g>
					<g>
						<g>
							<path style="fill:#77E236;" d="M2002.294,721c8.271,31.747,22.903,79.103-11.542,100.434
								c-21.633,13.396-24.709-21.122-28.133-39.209c-6.082-32.129-23.821-80.6,7.638-104.405
								C1997.357,657.313,1989.749,712.259,2002.294,721z"/>
						</g>
					</g>
					<g>
						<g>
							<path style="fill:#77E236;" d="M3397.079,914.697c8.028,32.589,16.591,65.476-16.079,76.257
								c-26.08,8.606-23.655-24.954-30.263-42.528c-11.483-30.538-5.157-60.065,17.039-71.07
								C3394.672,864.021,3388.782,902.167,3397.079,914.697z"/>
						</g>
					</g>
					<g>
						<g>
							<path style="fill:#77E236;" d="M1944.425,802.515c4.925,21.018,2.438,37.652-15.035,45.688
								c-11.894,5.47-20.992,1.686-25.283-14.62c-5.355-20.346-1.407-38.294,12.643-49.405
								C1931.793,772.281,1939.239,785.64,1944.425,802.515z"/>
						</g>
					</g>
					<g>
						<g>
							<g>
								<g>
									<path style="fill:#428E11;" d="M2621.364,2151.314c-39.194,0-69.065-30.513-79.839-64.907
										c-8.289-26.445-15.256-54.478-21.997-81.582c-1.506-6.059-3.008-12.095-4.519-18.096l-0.259-1.504
										c-4.373-46.396-29.978-89.404-68.496-115.049c-53.672-35.732-67.356-108.145-75.969-173.213
										c-3.25-24.546-13.425-43.357-26.558-49.092c-9.656-4.224-21.299-1.592-34.597,7.815
										c-38.083,26.931-84.563,31.741-134.434,13.926c-69.695-24.897-133.65-91.44-152.07-158.225
										c-23.337-103.628-4.883-200.684,57.964-305.903c40.259-67.402,125.295-91.47,197.795-55.979
										c27.219,13.32,58.491,2.935,79.934-8.127c54.399-28.069,106.931-91.763,114.709-139.087
										c1.914-11.641,1.206-18.911,0.017-21.602c-12.893-28.965-42.41-47.871-77.019-49.316
										c-33.677-1.394-63.596,14.141-78.105,40.566c-26.101,47.522-79.355,63.726-126.643,38.521
										c-29.05-15.483-50.718-20.066-66.23-13.977c-20.977,8.223-34.751,37.241-48.979,78.279
										c-1.743,5.029-3.145,11.164-4.629,17.661c-4.097,17.932-8.335,36.475-22.524,42.4c-7.854,3.279-16.909,1.811-26.897-4.382
										c-35.139-21.79-61.599-64.5-44.177-103.975c45.781-103.762,76.272-189.548,95.952-269.978
										c1.77-7.229,9.583-21.206,20.444-22.346c66.877-7.012,77.024-75.308,86.838-141.357
										c3.027-20.391,5.889-39.648,10.447-56.362c5.708-20.918,1.768-27.273-9.858-34.399c-3.34-2.048-5.483-2.444-6.35-2.139
										c-1.15,0.403-4.329,2.732-9.006,15.64c-3.599,9.937-7.178,19.888-10.754,29.836c-6.87,19.114-13.74,38.225-20.769,57.231
										c-1.018,2.749-1.936,5.925-2.91,9.287c-3.813,13.188-10.186,35.256-31.897,32.056c-25.598-3.782-37.986-32.8-36.643-58.184
										c2.261-42.808,12.9-123.718,58.745-184.636c31.838-42.31,91.565-70.061,139.529-38.135
										c47.278,31.46,85.046,31.812,144.355,1.35l1.14-0.586c25.249-12.974,51.357-26.387,77.976-34.412
										c39.614-11.941,69.541-44.314,80.054-86.597c12.715-48.04,51.277-83.621,100.671-93.001
										c26.069-4.951,40.134-19.221,47.031-47.72c14.924-61.665,62.422-111.504,127.058-133.32
										c98.191-33.14,169.055-20.037,229.751,42.5c10.681,11.006,20.305,9.402,36.392,5.62c1.914-0.449,3.816-0.896,5.703-1.301
										c17.581-3.782,35.85-7.244,53.518-10.591c26.035-4.932,52.954-10.032,77.388-16.125
										c35.203-8.787,84.033,7.483,106.638,35.508c9.277,11.509,19.688,15.256,35.908,12.935c12.5-1.787,25.422-2.688,37.92-3.56
										c9.6-0.671,18.667-1.301,27.273-2.297c53.291-6.165,77.937,6.33,105.469,53.479l0.754,1.291l0.342,1.455
										c11.733,49.7-21.768,112.122-66.379,123.689c-13.032,3.379-27.917,5.364-41.914,5.593
										c-11.785,0.195-19.421,2.81-23.347,8.001c-6.196,8.191-5.764,25.159,1.318,51.875
										c14.485,54.626,11.829,120.544-7.107,176.333c-21.824,64.304-62.974,109.849-115.869,128.242
										c-22.197,7.717-33.281,13.435-22.62,49.717c9.248,31.47,8.831,57.07-1.277,78.264
										c-28.12,58.96-35.425,113.096-21.714,160.903c7.061,24.617-0.129,48.889-18.765,63.342
										c-18.528,14.365-43.687,15.288-65.649,2.4c-41.179-24.163-83.877-52.998-126.912-85.708
										c-11.938-9.075-21.055-12.698-27.092-10.796c-7.017,2.222-13.555,12.734-19.429,31.243
										c-5.059,15.94-11.567,32.012-17.861,47.556c-8.296,20.481-16.13,39.827-20.881,58.757
										c-7.656,30.488-25.615,53.047-48.042,60.342c-12.908,4.207-33.096,5.168-56.211-13.872
										c-43.967-27.952-66.411-38.208-110.571-27.058c-18.911,4.778-40.479-1.072-60.74-16.45
										c-5.647-4.287-17.412-13.247-21.814-11.667c-1.809,0.63-4.751,4.612-7.085,13.755
										c-3.875,15.168,0.964,17.183,12.656,22.046c4.919,2.048,10.007,4.163,14.363,7.727
										c17.532,14.346,36.807,26.47,55.444,38.193c3.943,2.478,7.871,4.951,11.772,7.434
										c20.688,13.171,33.804,30.842,37.922,51.099c4.355,21.404-1.392,44.419-16.619,66.558
										c-19.148,27.835-46.504,47.38-73.181,52.288c-20.251,3.718-40.298-0.764-57.991-12.986
										c-15.33-9.729-31.064-20.068-46.282-30.068c-13.994-9.197-27.979-18.389-42.051-27.38c-2.041-1.306-4.067-2.742-6.077-4.17
										c-3.279-2.331-9.336-6.682-11.169-6.15c-0.034,0.01-3.459,1.143-8.186,13.064c-8.11,20.447-3.118,23.191,7.817,29.204
										c2.495,1.374,5.076,2.793,7.61,4.507c42.48,28.716,98.669,66.318,156.56,102.51
										c49.834,31.155,67.148,94.226,40.278,146.709c-43.164,84.319-44.578,181.169-4.451,304.8
										c13.044,40.181,24.326,83.53,35.508,136.406c20.107,92.466-20.413,238.247-132.104,265.488
										C2632.823,2150.685,2626.993,2151.314,2621.364,2151.314z M2534.586,1982.579c1.455,5.776,2.9,11.592,4.348,17.417
										c6.67,26.821,13.567,54.556,21.677,80.435c9.292,29.668,36.299,57.803,73.645,49.438
										c98.296-23.975,135.059-159.243,117.104-241.816c-11.196-52.944-21.98-94.385-34.978-134.429
										c-41.875-129.014-40.073-230.725,5.671-320.086c22.102-43.169,7.881-95.032-33.076-120.637
										c-58.162-36.36-114.541-74.089-157.161-102.9c-1.772-1.199-3.85-2.339-6.047-3.547
										c-11.738-6.455-31.382-17.258-16.772-54.104c3.594-9.06,9.692-21.496,21.111-24.873c11.116-3.281,20.72,3.545,28.435,9.036
										c1.738,1.238,3.484,2.485,5.249,3.613c14.143,9.038,28.201,18.274,42.268,27.52c15.151,9.958,30.82,20.254,46.34,30.115
										c13.738,9.478,28.201,12.769,43.328,9.983c21.567-3.967,44.119-20.398,60.32-43.95
										c12.078-17.561,16.748-35.278,13.501-51.238c-3.057-15.024-12.834-27.881-29.067-38.215
										c-3.87-2.464-7.766-4.915-11.677-7.376c-19.158-12.048-38.967-24.509-57.463-39.643c-2.083-1.704-5.627-3.179-9.38-4.739
										c-12.158-5.059-32.507-13.525-24.353-45.461c3.916-15.332,10.417-24.39,19.875-27.69
										c14.548-5.064,28.936,5.845,40.493,14.619c15.1,11.465,31.045,16.208,43.757,12.988
										c51.453-12.979,79.392-0.215,126.731,29.915l1.04,0.762c13.093,10.933,25.776,14.509,37.715,10.63
										c15.605-5.076,28.953-22.776,34.832-46.194c5.09-20.278,13.557-41.179,21.743-61.394
										c6.152-15.19,12.512-30.898,17.336-46.099c8.181-25.774,18.491-39.839,32.451-44.26c17.024-5.388,33.97,5.376,45.237,13.94
										c42.402,32.231,84.434,60.62,124.929,84.38c14.988,8.794,31.16,8.438,43.269-0.952
										c12.034-9.333,16.555-25.437,11.799-42.026c-15.098-52.642-7.397-111.528,22.886-175.024
										c7.891-16.548,7.935-37.488,0.139-64.016c-13.765-46.836,3.279-63.135,35.242-74.248
										c99.604-34.636,138.025-175.657,110.212-280.557c-9.009-33.972-8.372-55.273,2.063-69.067
										c7.881-10.42,20.627-15.63,38.97-15.93c12.28-0.203,25.847-2.009,37.222-4.958c34.153-8.855,60.62-59.009,52.253-98.313
										c-23.176-39.243-40.161-47.588-85.122-42.373c-9.06,1.047-18.779,1.724-28.179,2.38
										c-12.141,0.847-24.697,1.721-36.479,3.408c-14.639,2.095-36.201,2.28-54.312-20.181
										c-17.625-21.858-58.716-35.53-86.228-28.657c-24.988,6.233-52.192,11.387-78.503,16.372
										c-17.549,3.325-35.696,6.763-53.035,10.491c-1.765,0.381-3.545,0.801-5.337,1.221c-15.286,3.591-36.226,8.506-55.315-11.16
										c-54.619-56.277-119.077-67.832-209.004-37.48c-58.093,19.609-100.718,64.124-114.016,119.075
										c-8.784,36.291-28.718,56.204-62.739,62.663c-41.76,7.93-74.341,37.942-85.029,78.323
										c-12.195,49.05-47.219,86.777-93.655,100.776c-24.873,7.497-50.156,20.488-74.609,33.049l-1.14,0.586
										c-56.04,28.784-103.11,38.411-164.573-2.488c-37.756-25.137-86.13-1.489-112.468,33.511
										c-42.654,56.675-52.615,133.132-54.756,173.665c-0.869,16.44,6.377,35.391,19.597,37.344
										c3.42,0.493,5.615-3.499,9.761-17.827c1.03-3.557,2.095-7.236,3.362-10.667c7.009-18.95,13.86-38.005,20.708-57.06
										c3.584-9.966,7.166-19.932,10.771-29.883c4.163-11.487,9.937-23.762,21.204-27.705c7.158-2.505,15.034-1.169,23.411,3.965
										c20.793,12.747,26.211,29.177,18.701,56.714c-4.246,15.564-7.021,34.253-9.961,54.038
										c-9.854,66.316-22.097,148.757-103.164,158.159c-1.475,1.348-3.865,4.868-4.473,7.358
										c-19.968,81.597-50.815,168.438-97.085,273.298c-12.81,29.033,8.625,61.667,36.421,78.904
										c4.648,2.883,7.563,3.372,8.652,2.925c4.69-1.958,8.472-18.511,10.732-28.401c1.538-6.733,3.127-13.696,5.229-19.758
										c16.499-47.583,32.385-79.294,60.576-90.347c21.577-8.462,47.935-3.711,82.939,14.949
										c37.18,19.829,79.114,6.997,99.705-30.5c18.193-33.13,55.178-52.644,96.47-50.918c42.251,1.763,78.45,25.207,94.468,61.189
										c3.318,7.51,3.796,18.589,1.436,32.954c-8.813,53.611-65.012,122.522-125.276,153.616
										c-36.589,18.882-70.444,21.758-97.898,8.318c-63.071-30.877-136.951-10.122-171.833,48.269
										c-60.051,100.545-77.761,192.944-55.735,290.794c16.702,60.515,75.378,121.375,139.402,144.248
										c30.308,10.825,75.063,17.629,116.157-11.421c24.177-17.102,42.788-14.78,54.153-9.814
										c19.805,8.65,34.15,32.873,38.379,64.795c8.035,60.715,20.522,128.093,67.224,159.187
										C2500.609,1882.34,2529.442,1930.538,2534.586,1982.579z M2098.18,753.5c0,0,0,0-0.002,0
										C2098.18,753.5,2098.18,753.5,2098.18,753.5z"/>
								</g>
							</g>
							<g>
								<g>
									<path style="fill:#428E11;" d="M1728.942,2641.935c-11.67,0-22.695-7.622-32.559-14.438
										c-3.113-2.153-6.055-4.185-8.728-5.776c-49.707-29.839-89.087-87.378-108.074-157.876
										c-3.152-11.704-6.445-23.491-9.751-35.322c-8.953-32.036-18.208-65.166-24.868-97.598
										c-15.974-77.798-44.624-173.574-125.061-224.126c-78.997-54.365-103.972-214.79-81.785-292.398
										c2.031-7.109,5.891-13.867,9.624-20.405c9.744-17.066,12.864-24.976,4.319-34.609
										c-22.095-24.917-45.383-48.56-65.981-40.396c-49.307,19.57-108.613,3.032-176.262-49.136
										c-42.539-32.805-86.523-66.726-135.124-93.545c-65.701-35.649-89.973-107.112-111.389-170.161
										c-3.106-9.143-6.169-18.164-9.309-26.941c-19.351-54.058-99.517-116.731-158.164-109.226
										c-31.458,4.028-46.819,35.764-61.677,66.457c-3.801,7.854-7.732,15.977-11.856,23.428l-9.324,16.863l-8.42-17.331
										c-26.443-54.417-32.527-98.069-18.601-133.445c12.371-31.428,41.057-56.018,85.264-73.086
										c140.493-61.059,283.203-128.015,423.784-198.848l3.63-1.841c22.08-11.23,52.317-26.594,77.263,4.287
										c17.71,21.931,20.74,50.703,9.258,87.961c-11.563,37.527,8.389,49.053,44.648,66.194c2.957,1.399,5.928,2.803,8.884,4.238
										c29.514,14.326,61.357-11.05,77.715-27.454c10.686-10.718,6.79-22.966-0.454-42.063
										c-2.864-7.544-5.823-15.347-7.263-23.232c-0.635-3.472-1.604-7.102-2.629-10.942c-3.843-14.39-8.623-32.295,4.993-48.027
										c17.71-20.459,37.788-5.303,47.439,1.977c1.636,1.233,3.232,2.444,4.788,3.521c21.047,14.561,39.131,15.598,60.476,3.452
										c29.961-17.044,58.86-10.664,77.3,17.058c16.729,25.149,18.523,57.971,5.19,94.922
										c-21.709,60.173-45.1,121.533-67.72,180.874c-21.13,55.434-42.981,112.756-62.925,167.764
										c-17.253,47.59-64.519,66.604-106.218,83.379c-4.919,1.98-9.771,3.931-14.49,5.896
										c-13.733,5.728-23.066,15.132-27.744,27.957c-6.321,17.322-3.669,40.115,7.087,60.969
										c9.709,18.816,14.197,16.985,17.48,15.669c54.185-21.892,100.537,11.338,137.781,38.042
										c4.309,3.088,8.555,6.133,12.742,9.05c13.003,9.05,58.682,36.887,100.552,14.98c46.855-24.497,87.188-22.693,134.875,6.008
										l4.719,2.849c32.283,19.509,76.497,46.223,113.369,35.789c9.902-2.807,24.949-2.949,40.403,12.31
										c39.429,38.926,55.444,152.832,45.957,188.027c-27.871,103.394-68.086,224.541-116.294,350.347
										c-23.376,60.996-25.759,120.259-7.083,176.138c10.537,31.528,18.936,69.248,25.684,99.556
										c1.152,5.171,3.074,10.825,5.11,16.807c5.903,17.354,12.593,37.017,1.76,52.759c-4.717,6.86-10.659,10.986-17.656,12.275
										C1732.054,2641.803,1730.492,2641.935,1728.942,2641.935z M1294.894,1697.25c28.799,0,54.309,28.767,72.131,48.865
										c18.906,21.323,6.873,42.402-1.917,57.793c-3.289,5.762-6.394,11.206-7.764,15.991
										c-20.71,72.451,3.997,222.324,73.545,270.195c86.499,54.351,116.89,155.117,133.662,236.807
										c6.521,31.748,15.681,64.531,24.541,96.24c3.323,11.89,6.631,23.74,9.8,35.498
										c17.654,65.552,53.745,118.735,99.021,145.913c3.225,1.919,6.589,4.243,9.841,6.494
										c7.578,5.239,16.99,11.753,22.258,10.796c0.588-0.107,2.385-0.439,4.792-3.94c5.142-7.471,0.383-21.455-4.216-34.976
										c-2.119-6.23-4.312-12.671-5.698-18.906c-6.648-29.858-14.922-67.017-25.132-97.563
										c-20.183-60.391-17.703-124.194,7.375-189.634c47.969-125.176,87.964-245.649,115.659-348.394
										c8.149-30.229-8.245-136.553-40.696-168.594c-9.321-9.204-16.389-8.569-20.901-7.3
										c-45.225,12.832-93.74-16.504-129.165-37.91l-4.69-2.832c-42.034-25.3-74.358-26.824-115.293-5.417
										c-34.985,18.289-80.315,12.205-121.245-16.292c-4.263-2.969-8.584-6.067-12.969-9.211
										c-36.699-26.306-74.644-53.511-118.638-35.75c-24.675,9.971-37.803-15.469-42.744-25.044
										c-13.274-25.732-16.304-54.517-8.103-76.995c6.577-18.03,20.005-31.709,38.838-39.56c4.792-1.997,9.722-3.979,14.719-5.991
										c39.663-15.955,80.674-32.451,94.88-71.641c20-55.161,41.88-112.561,63.04-168.071
										c22.59-59.258,45.947-120.535,67.595-180.537c7.737-21.443,13.494-52.219-3.027-77.058
										c-12.693-19.077-29.773-22.698-50.762-10.752c-28.228,16.055-54.202,14.668-81.743-4.39
										c-1.77-1.223-3.591-2.595-5.454-4.001c-13.359-10.081-15.913-9.893-20.271-4.854c-6.36,7.346-4.443,16.101-0.793,29.778
										c1.084,4.055,2.202,8.247,2.981,12.51c1.113,6.091,3.628,12.717,6.289,19.734c7.246,19.102,16.262,42.871-4.084,63.276
										c-34.229,34.326-70.898,45.74-100.61,31.326c-2.893-1.406-5.803-2.781-8.696-4.15
										c-32.275-15.259-72.444-34.248-55.212-90.164c9.5-30.837,7.688-52.922-5.706-69.504
										c-14.08-17.437-28.455-11.326-52.639,0.974l-3.696,1.873c-140.918,71.001-283.975,138.12-425.198,199.487
										c-39.7,15.337-63.857,35.537-74.238,61.909c-10.225,25.974-7.117,58.386,9.543,98.667c0.676-1.392,1.357-2.798,2.046-4.219
										c16.374-33.833,34.936-72.178,77.139-77.583c68.652-8.804,157.612,61.082,179.531,122.327
										c3.179,8.875,6.277,18,9.419,27.248c21.223,62.485,43.171,127.097,102.053,159.048c50,27.593,94.602,61.987,137.734,95.249
										c61.672,47.561,114.39,63.161,156.672,46.387C1284.188,1698.224,1289.598,1697.25,1294.894,1697.25z"/>
								</g>
							</g>
							<g>
								<g>
									<path style="fill:#428E11;" d="M3562.533,1440.345c-24.888,0-49.766-9.448-68.328-32.979
										c-29.827-35.444-35.173-88.01-14.475-143.977c27.319-73.87,97.266-146.277,178.25-141.763
										c84.365,4.714,153.193,100.151,175.12,166.414l0.034,0.107c0.117,0.369,0.264,0.735,0.405,1.101
										c0.603,1.567,1.428,3.713,1.653,6.37c0.662,7.822,4.421,16.328,8.403,25.334c8.267,18.706,18.56,41.987-2.705,62.834
										c-23.694,23.237-75.981,52.004-116.162,31.094c-49.363-15.711-66.538-11.956-107.886,10.947
										C3600.616,1434.815,3581.571,1440.345,3562.533,1440.345z M3650.951,1141.432c-68.12,0-128.972,65.381-152.461,128.896
										c-8.582,23.198-24.663,81.758,11.218,124.407c25.688,32.559,67.405,30.234,97.441,13.599
										c45.452-25.173,68.555-30.149,124.521-12.231l1.707,0.727c29.192,15.779,72.253-6.479,93.511-27.324
										c10.845-10.63,6.689-21.741-1.587-40.466c-4.473-10.115-9.097-20.576-10.039-31.743c-0.054-0.061-0.232-0.456-0.388-0.862
										c-0.276-0.718-0.547-1.435-0.779-2.158c-23.354-70.515-90.095-148.928-157.234-152.678
										C3654.889,1141.485,3652.914,1141.432,3650.951,1141.432z"/>
								</g>
							</g>
							<g>
								<g>
									<path style="fill:#428E11;" d="M1669.572,958.219c-14.172,0.002-29.841-7.793-48.433-23.931
										c-3.333-2.893-6.738-5.752-10.156-8.621c-22.173-18.618-45.1-37.871-54.119-69.546
										c-17.319-60.833-63.789-96.872-99.724-116.394c-29.543-16.05-62.131-41.643-51.816-97.532l0.356-1.938
										c8.333-45.195,18.701-101.443,66.055-125.503c24.722-12.561,50.457-26.892,75.347-40.749
										c8.433-4.695,16.865-9.39,25.278-14.028l-0.093-0.337l12.874-7.058c16.267-8.923,33.086-18.152,48.22-26.155
										c5.701-3.013,12.305-7.063,19.299-11.35c26.924-16.504,60.437-37.039,90.493-29.338
										c14.502,3.718,26.421,13.601,35.427,29.373c49.565,86.797,58.43,167.17,27.898,252.942
										c-9.348,26.26-19.202,52.615-29.636,80.518c-17.81,47.632-36.226,96.887-51.807,145.337
										c-12.114,37.676-26.516,57.671-45.32,62.922C1676.41,957.755,1673.036,958.219,1669.572,958.219z M1595.704,469.598
										l0.017,0.059l-6.833,4.055c-10.664,5.845-21.37,11.807-32.078,17.768c-25.051,13.948-50.957,28.369-76.016,41.106
										c-38.538,19.58-47.913,70.434-55.444,111.296l-0.359,1.941c-7.471,40.488,11.265,59.797,41.694,76.33
										c39.307,21.353,90.193,60.977,109.412,128.491c7.341,25.776,26.968,42.258,47.747,59.705
										c3.501,2.94,6.99,5.869,10.405,8.836c17.346,15.059,30.461,21.069,40.085,18.384c11.411-3.188,22.063-19.939,31.663-49.785
										c15.723-48.894,34.221-98.372,52.112-146.218c10.405-27.827,20.232-54.109,29.526-80.222
										c28.433-79.868,20.037-154.958-26.423-236.316c-6.309-11.047-13.84-17.561-23.027-19.917
										c-21.853-5.605-51.362,12.485-75.073,27.017c-7.271,4.458-14.141,8.669-20.4,11.98
										C1628.002,451.886,1611.61,460.872,1595.704,469.598z"/>
								</g>
							</g>
							<g>
								<g>
									<path style="fill:#428E11;" d="M1230.475,907.323c-8.508,0-17.141-1.592-25.964-5.276
										c-16.736-6.987-27.881-20.569-30.581-37.258c-3.894-24.043,13-32.722,23.096-37.908c1.775-0.911,3.521-1.799,5.122-2.756
										c10.635-6.348,21.565-12.095,32.136-17.654c7.468-3.926,15.188-7.986,22.659-12.185
										c28.328-15.923,50.271-19.998,67.085-12.48c13.657,6.113,22.849,19.482,27.319,39.736
										c8.379,37.979-17.561,45.198-33.059,49.512c-6.636,1.848-13.496,3.757-15.522,6.909l-1.243,1.934l-1.96,1.196
										C1276.715,895.042,1254.088,907.323,1230.475,907.323z M1305.939,798.143c-9.995,0-23.12,4.541-39.197,13.577
										c-7.715,4.338-15.562,8.464-23.152,12.454c-10.334,5.435-21.021,11.052-31.189,17.124
										c-1.953,1.167-4.075,2.263-6.238,3.374c-10.627,5.459-13.94,7.976-12.493,16.921c2.153,13.301,12.544,19.492,18.545,21.997
										c22.148,9.243,42.861,1.082,75.227-18.535c6.34-7.939,16.467-10.759,25.483-13.269c15.92-4.431,23.188-6.453,18.889-25.935
										c-3.03-13.73-8.398-22.407-15.957-25.789C1312.999,798.783,1309.689,798.143,1305.939,798.143z"/>
								</g>
							</g>
							<g>
								<g>
									<path style="fill:#428E11;" d="M3349.066,1153.07c-40.32,0-112.861-40.552-132.351-70.625
										c-4.531-6.992-5.72-15.073-3.352-22.759c3.081-9.998,11.831-18.467,24.641-23.853l1.448-0.608l1.563-0.137
										c46.057-3.979,115.276,29.097,139.712,66.799c8.499,13.113,6.87,23.682,4.009,30.237
										c-5.061,11.592-17.439,18.542-27.461,20.288C3354.73,1152.857,3351.981,1153.07,3349.066,1153.07z M3244.342,1054.894
										c-6.294,2.915-10.684,6.846-11.868,10.684c-0.627,2.039-0.303,3.943,1.025,5.991
										c18.318,28.264,92.539,65.979,120.344,61.143c4.585-0.801,10.693-4.309,12.561-8.586c0.488-1.118,1.973-4.519-2.461-11.358
										C3345.714,1084.637,3286.188,1052.193,3244.342,1054.894z"/>
								</g>
							</g>
							<g>
								<g>
									<path style="fill:#428E11;" d="M2796.52,1812.965c-2.644,0-5.176-0.483-7.612-1.45
										c-12.312-4.888-15.903-19.546-19.377-33.721c-1.663-6.787-3.381-13.809-5.784-18.311l-0.715-1.338l-0.286-1.489
										c-4.243-22.202-17.158-89.756,29.739-121.167c9.36-6.267,18.071-7.837,25.894-4.661
										c14.993,6.089,19.363,26.684,23.218,44.856c0.676,3.184,1.323,6.24,1.997,9.006
										c17.974,73.625-5.679,106.848-28.687,121.755C2808.18,1810.802,2802.103,1812.965,2796.52,1812.965z M2782.128,1751.52
										c3.135,6.435,5.01,14.092,6.829,21.514c1.482,6.045,4.563,18.618,7.332,19.893c-0.002-0.015,2.136,0.366,7.744-3.267
										c25.552-16.553,32.324-50.273,20.132-100.227c-0.72-2.947-1.411-6.204-2.131-9.597
										c-1.956-9.214-6.023-28.384-11.182-30.479c-0.964-0.386-3.584,0.303-7.239,2.749
										C2779.674,1668.141,2772.64,1700.665,2782.128,1751.52z"/>
								</g>
							</g>
							<g>
								<g>
									<path style="fill:#428E11;" d="M3466.974,538.275c-7.908,0-16.519-3.96-22.349-10.62
										c-6.27-7.161-7.979-16.006-4.688-24.265c2.078-5.847,4.231-12.234,6.414-18.708
										c13.196-39.124,28.149-83.469,63.567-108.391c3.918-2.759,17.62-11.426,29.404-7.163
										c5.667,2.048,9.731,6.675,11.445,13.025l0.239,1.143c7.297,49.275-35.547,143.462-78.799,154.353
										C3470.526,538.07,3468.768,538.275,3466.974,538.275z M3531.459,388.038c-2.214,0.374-6.292,1.978-10.032,4.609
										c-30.063,21.155-43.313,60.437-56.123,98.425c-2.222,6.587-4.412,13.081-6.658,19.377
										c-0.334,0.857-0.762,1.931,0.945,3.936c2.439,2.866,6.455,4.116,7.739,3.867
										C3496.969,510.787,3536.268,430.353,3531.459,388.038z"/>
								</g>
							</g>
							<g>
								<g>
									<path style="fill:#428E11;" d="M3491.537,1107.667c-3.003,0-6.055-0.581-9.082-2.009
										c-8.281-3.906-13.748-13.035-16.714-27.908c-5.891-29.546-0.549-67.405,58.369-79.973
										c3.025-0.647,7.397-2.773,11.624-4.829c9.951-4.839,22.334-10.867,33.745-5.652c7.126,3.254,12.183,10.217,15.034,20.696
										c6.042,18.813,4.221,37.087-5.276,52.866c-10.986,18.252-31.14,31.138-55.288,35.357l-1.067,0.185l-0.996-0.042
										c-1.589,0.154-5.867,2.451-8.706,3.975C3507.155,1103.565,3499.51,1107.667,3491.537,1107.667z M3559.811,1005.245
										c-3.64,0-10.808,3.489-15.325,5.686c-5.305,2.581-10.791,5.252-16.204,6.406c-35.952,7.669-49.192,25.095-42.927,56.501
										c2.41,12.085,5.598,13.714,5.63,13.731c1.943,0.92,9.238-2.981,12.737-4.858c5.659-3.037,11.497-6.17,17.61-6.348
										c17.813-3.318,33.01-12.93,40.769-25.82c6.462-10.732,7.605-23.396,3.308-36.619l-0.149-0.51
										c-1.36-5.093-3.054-7.454-4.089-7.927C3560.807,1005.321,3560.348,1005.245,3559.811,1005.245z"/>
								</g>
							</g>
							<g>
								<g>
									<path style="fill:#428E11;" d="M3915.326,1361.397c-7.656,0-14.822-1.98-21.409-5.933
										c-18.215-10.928-27.107-34.558-31.36-52.456c-0.835-3.513-2.832-8.103-4.949-12.961
										c-5.186-11.907-11.062-25.403-5.725-37.036c2.849-6.216,8.291-10.603,16.172-13.042
										c40.945-12.661,52.82,21.663,60.679,44.375c2.449,7.08,4.763,13.767,7.576,19.287l1.418,2.783l-0.444,3.279
										c-0.239,1.78,2.854,7.283,4.514,10.242c4.175,7.432,9.373,16.682,5.354,26.157c-2.756,6.499-8.975,10.938-19.009,13.572
										C3923.737,1360.821,3919.459,1361.397,3915.326,1361.397z M3884.269,1257.242c-2.976,0-6.365,0.615-10.303,1.833
										c-2.087,0.647-3.547,1.497-3.904,2.275c-1.609,3.506,3.081,14.277,5.884,20.713c2.371,5.444,4.824,11.077,6.069,16.321
										c4.756,20.017,12.637,34.199,22.192,39.932c5.422,3.25,11.592,3.909,18.857,2.002c3.142-0.825,4.717-1.633,5.425-2.09
										c-0.488-2.017-2.727-6.004-4.128-8.499c-3.284-5.845-6.943-12.358-7.08-19.495c-2.869-6.121-5.193-12.832-7.449-19.351
										C3901.969,1268.155,3896.793,1257.242,3884.269,1257.242z"/>
								</g>
							</g>
							<g>
								<g>
									<path style="fill:#428E11;" d="M1981.879,834.444c-3.24,0-5.942-0.769-8.042-1.716
										c-13.755-6.199-17.207-26.389-19.98-42.612c-0.364-2.139-0.71-4.175-1.062-6.03c-0.918-4.841-2.107-10.059-3.347-15.513
										c-7.168-31.523-16.985-74.695,14.778-98.726c8.191-6.204,15.774-8.032,22.549-5.449
										c11.47,4.382,14.226,18.462,16.89,32.075c1.064,5.444,2.847,14.556,4.651,16.572l3.03,2.112l0.627,3.32l1.282,4.878
										c8.667,32.825,21.768,82.427-17.239,106.58C1990.585,833.299,1985.834,834.444,1981.879,834.444z M1979.625,683.673
										c-0.725,0.347-1.821,0.979-3.333,2.122c-21.465,16.24-13.962,49.233-7.344,78.345c1.299,5.703,2.537,11.162,3.496,16.226
										c0.371,1.963,0.74,4.116,1.125,6.379c1.194,6.982,4.363,25.515,8.479,27.747c-0.01-0.044,1.101-0.112,3.435-1.558
										c24.431-15.129,18.271-47.207,8.433-84.47l-0.562-2.134c-5.425-6.099-7.324-15.815-9.321-26.016
										C1983.09,695.489,1981.427,686.981,1979.625,683.673z"/>
								</g>
							</g>
							<g>
								<g>
									<path style="fill:#428E11;" d="M3373.314,1002.345c-4.319,0-8.267-1.028-11.804-3.083
										c-11.255-6.538-14.17-20.947-16.741-33.662c-1.045-5.159-2.029-10.032-3.391-13.655
										c-13.56-36.057-4.531-70.413,21.956-83.547c8.899-4.414,16.709-5.01,23.213-1.78c10.713,5.317,13.171,18.171,15.339,29.509
										c0.923,4.834,2.073,10.85,3.53,13.052l0.957,1.445l0.723,2.93c8.057,32.681,18.083,73.354-22.961,86.899
										C3380.311,1001.712,3376.698,1002.345,3373.314,1002.345z M3377.589,884.495c0.002,0.064-1.602-0.049-5.369,1.821
										c-16.951,8.403-21.936,32.495-12.122,58.589c1.926,5.125,3.12,11.023,4.272,16.729c1.475,7.292,3.706,18.311,7.185,20.334
										c1.096,0.635,3.398,0.454,6.309-0.51c21.111-6.965,19.099-25.413,9.861-62.92c-2.937-5.335-4.231-12.097-5.486-18.655
										C3381.317,895.055,3379.603,886.083,3377.589,884.495z"/>
								</g>
							</g>
							<g>
								<g>
									<path style="fill:#428E11;" d="M1920.043,860.533c-4.109,0-7.41-0.994-9.858-2.151
										c-7.498-3.543-12.795-11.03-15.747-22.256c-6.516-24.748-0.645-46.543,16.108-59.792
										c7.722-6.101,15.288-8.062,22.498-5.818c11.77,3.662,17.373,17.456,20.94,29.063l0.178,0.657
										c6.677,28.501-0.251,47.695-20.591,57.053C1928.385,859.674,1923.864,860.533,1920.043,860.533z M1927.086,789.608
										c0.01,0.039-1.345,0.208-4.133,2.415c-14.004,11.074-11.76,29.197-9.175,39.014c1.533,5.83,3.562,8.606,4.949,9.26
										c1.226,0.583,3.589,0.154,6.487-1.179c7.781-3.579,14.993-10.422,9.551-33.989
										C1930.524,791.456,1927.34,789.725,1927.086,789.608z"/>
								</g>
							</g>
						</g>
					</g>
				</g>
			</g>
			<g style="opacity:0.6;">
				<g>
					<g>
						<path style="fill:#FFFFFF;" d="M1004.289,1452.089c3.287-115.535,26.199-226.123,65.615-328.572
							c141.912-369.077,497.195-632.3,914.703-638.635c5.091-0.117,10.242-0.117,15.393-0.117s10.361,0,15.511,0.117
							c417.566,6.394,772.732,269.617,914.584,638.635c39.416,102.449,62.328,213.037,65.615,328.572
							c0.01-0.342,0.033-0.681,0.043-1.023c0.295-10.005,0.414-20.068,0.414-30.134c0-125.986-23.386-246.465-66.072-357.415
							c-141.853-369.019-497.018-632.241-914.584-638.635c-5.151-0.117-10.361-0.117-15.511-0.117s-10.302,0-15.393,0.117
							c-417.507,6.336-772.791,269.558-914.703,638.635c-42.686,110.95-66.072,231.428-66.072,357.415
							c0,10.066,0.119,20.129,0.414,30.134C1004.256,1451.407,1004.279,1451.747,1004.289,1452.089z"/>
					</g>
				</g>
			</g>
			<g>
				<g>
					<circle style="fill:none;" cx="2000.006" cy="1430.962" r="996.192"/>
				</g>
			</g>
			<g>
				<g style="opacity:0.3;">
					<g>
						<path style="fill:#17172B;" d="M1005.303,1436.239c28.71,524.477,463.114,940.945,994.703,940.945
							c531.649,0,965.995-416.467,994.703-940.945c0.445,8.252,0.822,16.523,1.064,24.829l0,0
							c-1.631-55.982-7.911-110.754-18.419-164.08c-33.833,171.521-179.731,300.515-348.888,394.758
							c-389.99,217.275-866.932,217.275-1256.921,0c-169.156-94.243-315.054-223.237-348.887-394.758
							c-10.508,53.325-16.789,108.098-18.419,164.08l0,0C1004.481,1452.762,1004.857,1444.491,1005.303,1436.239z"/>
					</g>
				</g>
			</g>
			<g>
				<g>
					<path style="fill:#32B1D1;" d="M1784.897,1492.782"/>
				</g>
			</g>
			<g>
				<g>
					<path style="fill:#371A45;" d="M1999.999,2442.569c-264.868,0-515.303-101.68-705.168-286.309
						c-189.487-184.258-298.154-430.986-305.986-694.736c-0.286-9.617-0.422-19.622-0.422-30.593
						c0-125.107,22.576-247.219,67.1-362.947c71.665-186.384,195.967-346.274,359.463-462.378
						c167.087-118.652,363.979-183.015,569.39-186.13c10.166-0.239,20.955-0.242,31.497,0.002
						c205.31,3.142,402.195,67.522,569.248,186.174c163.457,116.096,287.722,275.969,359.363,462.334
						c44.521,115.725,67.097,237.837,67.097,362.944c0,10.972-0.139,20.977-0.422,30.591
						c-7.832,263.757-116.492,510.486-305.964,694.739C2515.333,2340.89,2264.891,2442.569,1999.999,2442.569z M1999.647,450.174
						c-4.91,0-9.822,0.002-14.678,0.115c-402.678,6.108-756.167,252.91-900.684,628.757
						c-43.159,112.188-65.044,230.576-65.044,351.885c0,10.664,0.134,20.373,0.408,29.682
						c15.84,533.347,446.46,951.135,980.349,951.135c533.892,0,964.512-417.788,980.352-951.138
						c0.273-9.307,0.408-19.016,0.408-29.68c0-121.309-21.885-239.697-65.044-351.882
						c-144.458-375.794-497.9-622.593-900.439-628.757C2010.001,450.169,2004.803,450.201,1999.647,450.174z"/>
				</g>
			</g>
		</g>
		<g>
			<g>
				<g>
					<path style="fill:#FFFFFF;" d="M2359.666,2438.187L2359.666,2438.187c-4.096,0.306-7.664-2.766-7.97-6.862l-15.955-213.604
						c-0.306-4.095,2.766-7.664,6.862-7.969h0c42.967-3.209,80.4,29.02,83.609,71.987l5.441,72.84
						C2434.862,2397.544,2402.633,2434.978,2359.666,2438.187z"/>
				</g>
				<g>
					<path style="fill:#371A45;" d="M2359.113,2440.978c-5.288,0-9.775-4.092-10.178-9.448l-15.955-213.604
						c-0.417-5.605,3.806-10.513,9.417-10.933c44.426-3.408,83.259,30.122,86.577,74.541l5.439,72.837
						c3.318,44.419-30.12,83.257-74.539,86.577h-0.002C2359.615,2440.968,2359.362,2440.978,2359.113,2440.978z M2348.466,2212.301
						c-1.875,0-3.757,0.068-5.657,0.21c-2.566,0.195-4.497,2.437-4.307,5.005l15.955,213.604c0.193,2.563,2.468,4.448,5.005,4.312
						c41.375-3.096,72.52-39.272,69.429-80.649l-5.439-72.837C2420.502,2242.472,2387.43,2212.301,2348.466,2212.301z"/>
				</g>
			</g>
			<g style="opacity:0.35;">
				<g>
					<path style="fill:#371A45;" d="M2429.101,2320.422l2.559,34.162c3.203,42.952-29.023,80.393-71.998,83.619
						c-4.094,0.31-7.662-2.784-7.972-6.878l-4.26-56.782c1.343,2.503,4.068,4.097,7.076,3.896l5.064-0.393
						C2393.525,2375.517,2420.791,2351.592,2429.101,2320.422z"/>
				</g>
			</g>
			<g>
				<g>
					<path style="fill:#371A45;" d="M2359.103,2453.619c-11.829,0-21.875-9.16-22.773-21.143l-15.955-213.608
						c-0.938-12.559,8.518-23.54,21.074-24.482c51.396-3.867,96.292,34.839,100.129,86.206l5.439,72.837
						c3.84,51.367-34.832,96.284-86.201,100.127h-0.015C2360.233,2453.6,2359.667,2453.619,2359.103,2453.619z M2351.74,2225.03
						l14.692,196.694c30.391-6.211,52.224-34.272,49.854-66.001l-5.439-72.837C2408.475,2251.158,2382.711,2226.661,2351.74,2225.03
						z"/>
				</g>
			</g>
			<g>
				<g>
					<path style="fill:#FFFFFF;" d="M1637.544,2262.417L1637.544,2262.417c4.096-0.306,7.664,2.766,7.97,6.862l15.956,213.604
						c0.306,4.096-2.766,7.664-6.862,7.97h0c-42.967,3.209-80.4-29.02-83.609-71.987l-5.441-72.84
						C1562.348,2303.06,1594.578,2265.626,1637.544,2262.417z"/>
				</g>
				<g>
					<path style="fill:#371A45;" d="M1648.663,2493.844c-19.314,0-37.786-6.836-52.576-19.57
						c-16.353-14.077-26.243-33.682-27.852-55.2l-5.439-72.842c-1.606-21.519,5.261-42.373,19.341-58.726
						c14.077-16.353,33.682-26.24,55.203-27.847c2.703-0.205,5.352,0.659,7.417,2.441c2.065,1.777,3.315,4.253,3.518,6.973
						l15.955,213.604c0.203,2.72-0.664,5.352-2.444,7.422c-1.78,2.065-4.255,3.311-6.973,3.511
						C1652.758,2493.766,1650.704,2493.844,1648.663,2493.844z M1638.109,2265.167c-0.117,0-0.237,0.005-0.356,0.01h-0.002
						c-20.044,1.499-38.303,10.713-51.418,25.942c-13.113,15.229-19.512,34.658-18.013,54.702l5.439,72.842
						c1.497,20.039,10.71,38.301,25.942,51.416s34.692,19.478,54.7,18.013c1.245-0.093,2.375-0.664,3.191-1.606
						c0.813-0.947,1.208-2.153,1.116-3.398l-15.955-213.604c-0.093-1.245-0.664-2.373-1.609-3.188
						C1640.289,2265.558,1639.225,2265.167,1638.109,2265.167z"/>
				</g>
			</g>
			<g style="opacity:0.35;">
				<g>
					<path style="fill:#371A45;" d="M1657.06,2423.624l4.419,59.258c0.31,4.094-2.784,7.662-6.877,7.973
						c-22.552,1.675-43.601-6.399-58.962-20.686c-13.872-12.902-23.105-30.89-24.632-51.29l-2.294-30.693
						c14.208,26.017,42.784,42.747,74.286,40.4l7.795-0.583C1653.639,2427.783,1655.941,2426.03,1657.06,2423.624z"/>
				</g>
			</g>
			<g>
				<g>
					<path style="fill:#371A45;" d="M1648.639,2506.485c-22.329,0-43.694-7.905-60.798-22.632
						c-18.911-16.279-30.352-38.955-32.209-63.838l-5.439-72.842c-1.86-24.888,6.082-49.004,22.366-67.915
						c16.279-18.911,38.95-30.347,63.833-32.207l0,0c6.055-0.454,11.987,1.484,16.614,5.464c4.626,3.984,7.424,9.531,7.878,15.62
						l15.952,213.599c0.459,6.084-1.484,11.987-5.471,16.611c-3.984,4.629-9.531,7.422-15.62,7.871
						C1653.368,2506.397,1650.997,2506.485,1648.639,2506.485z M1630.778,2278.878c-13.535,2.744-25.708,9.854-34.866,20.488
						c-10.911,12.671-16.233,28.833-14.988,45.513l5.439,72.842c1.248,16.675,8.914,31.865,21.584,42.778
						c10.637,9.155,23.73,14.375,37.522,15.078L1630.778,2278.878z"/>
				</g>
			</g>
			<g style="opacity:0.35;">
				<g>
					<path style="fill:#371A45;" d="M2257.279,2671.365c-65.789,66.063-156.716,107.057-257.334,107.434
						c-103.187,0.377-196.545-42.124-263.156-110.756c120.55-92.878,258.087-121.133,258.087-121.133
						S2135.701,2575.85,2257.279,2671.365z"/>
				</g>
			</g>
			<g>
				<g>
					<circle style="fill:#FFFFFF;" cx="1998.65" cy="2350.299" r="365.013"/>
				</g>
				<g>
					<path style="fill:#371A45;" d="M1998.607,2718.077c-97.734,0-189.695-37.891-259.089-106.792
						c-69.712-69.214-108.298-161.436-108.647-259.673c-0.352-98.237,37.576-190.732,106.792-260.444
						s161.438-108.296,259.675-108.648c0.449,0,0.906,0,1.355,0c97.734,0,189.695,37.891,259.087,106.792
						c69.714,69.214,108.298,161.436,108.65,259.673s-37.576,190.732-106.792,260.444s-161.438,108.296-259.675,108.647
						C1999.513,2718.077,1999.056,2718.077,1998.607,2718.077z M1998.693,1988.053c-0.449,0-0.886,0.005-1.335,0.005
						c-96.76,0.347-187.593,38.35-255.767,107.012s-105.53,159.766-105.183,256.523c0.344,96.758,38.35,187.588,107.012,255.767
						c68.345,67.856,158.931,105.186,255.188,105.186c0.449,0,0.886-0.005,1.335-0.005c96.758-0.347,187.59-38.35,255.767-107.012
						c68.174-68.662,105.53-159.766,105.183-256.523s-38.35-187.588-107.012-255.767
						C2185.536,2025.382,2094.95,1988.053,1998.693,1988.053z"/>
				</g>
			</g>
			<g style="opacity:0.35;">
				<g>
					<path style="fill:#371A45;" d="M2359.982,2298.481c2.383,16.496,3.621,33.358,3.686,50.518
						c0.692,201.584-162.137,365.584-363.72,366.323c-201.584,0.693-365.584-162.136-366.323-363.72
						c-0.024-5.797,0.09-11.599,0.347-17.314c25.242,177.596,178.19,313.853,362.637,313.201
						C2192.395,2646.776,2351.595,2492.069,2359.982,2298.481z"/>
				</g>
			</g>
			<g>
				<g>
					<path style="fill:#371A45;" d="M1998.605,2730.719c-101.094,0-196.213-39.194-267.993-110.464
						c-72.109-71.592-112.021-166.982-112.383-268.599c-0.364-101.611,38.867-197.285,110.461-269.395
						c71.597-72.109,166.987-112.021,268.604-112.383c0.464,0,0.935,0,1.401,0c101.094,0,196.213,39.194,267.993,110.464
						c72.107,71.592,112.019,166.982,112.383,268.599c0.364,101.611-38.867,197.285-110.464,269.395
						c-71.594,72.109-166.985,112.021-268.601,112.383C1999.542,2730.719,1999.071,2730.719,1998.605,2730.719z M1998.693,2000.694
						c-0.435,0-0.857,0.005-1.289,0.005c-93.384,0.332-181.047,37.012-246.841,103.276
						c-65.796,66.265-101.848,154.189-101.514,247.573c0.332,93.379,37.009,181.04,103.276,246.836
						c65.962,65.493,153.386,101.519,246.282,101.519c0.435,0,0.857-0.005,1.289-0.005c93.384-0.332,181.045-37.012,246.841-103.276
						s101.848-154.189,101.514-247.573c-0.334-93.379-37.012-181.04-103.279-246.836
						C2179.012,2036.72,2091.588,2000.694,1998.693,2000.694z"/>
				</g>
			</g>
			<g>
				<g>
					<path style="fill:#371A45;" d="M2362.527,2358.375c1.334,71.415-20.61,138.15-59.233,193.748
						c-28.956,41.682-149.799,115.941-300.655,120.115c-139.876,3.87-268.556-68.342-299.048-108.914
						c-40.672-54.117-65.093-119.986-66.427-191.401c-3.53-188.986,157.376-270.364,357.688-274.105
						C2195.164,2094.077,2358.997,2169.389,2362.527,2358.375z"/>
				</g>
			</g>
			<g style="opacity:0.7;">
				<g>
					
						<ellipse transform="matrix(0.1599 -0.9871 0.9871 0.1599 -419.5121 4176.877)" style="fill:#FFFFFF;" cx="2244.174" cy="2334.903" rx="64.596" ry="46.807"/>
				</g>
			</g>
			<g style="opacity:0.7;">
				<g>
					
						<ellipse transform="matrix(0.2948 -0.9556 0.9556 0.2948 -810.5083 3829.6128)" style="fill:#FFFFFF;" cx="2189.234" cy="2463.91" rx="29.649" ry="25.443"/>
				</g>
			</g>
			<g style="opacity:0.35;">
				<g>
					<path style="fill:#111A28;" d="M2288.694,2183.386c45.127,41.479,72.4,99.075,73.828,174.978
						c1.335,71.43-20.623,138.161-59.218,193.759c-28.965,41.682-149.82,115.938-300.672,120.127
						c-53.265,1.489-104.89-8.075-150.112-22.741c185.324-9.102,332.517-100.222,368.425-151.919
						c49.023-70.564,76.87-155.274,75.165-245.893C2295.672,2227.477,2293.109,2204.726,2288.694,2183.386z"/>
				</g>
			</g>
			<g>
				<g>
					<path style="fill:#371A45;" d="M1661.471,2225.26c-2.19,0-4.395-0.718-6.238-2.192c-4.167-3.335-4.963-9.321-1.897-13.613
						c62.412-95.381,185.796-151.714,338.582-154.575c151.77-2.729,277.239,47.139,344.133,137.124
						c2.773,3.511,2.939,8.574,0.117,12.271c-3.293,4.326-9.412,5.244-13.809,2.041c-0.125-0.088-0.298-0.22-0.417-0.317
						l-1.011-0.811l-0.774-1.04c-62.949-84.873-182.471-132.173-327.866-129.268c-146.213,2.734-263.723,55.874-322.397,145.796
						l-0.857,1.133C1667.069,2224.078,1664.283,2225.26,1661.471,2225.26z"/>
				</g>
			</g>
			<g style="opacity:0.7;">
				<g>
					<path style="fill:#FFFFFF;" d="M1720.715,2482.828c0,0-62.014-185.342,37.074-261.512
						c99.089-76.171,243.65-78.571,240.443-69.237c0,0-159.31,41.732-219.564,169.418
						C1732.205,2419.959,1720.715,2482.828,1720.715,2482.828z"/>
				</g>
			</g>
		</g>
		<g>
			<g>
				<path style="fill:#FFFFFF;" d="M1845.187,2767.514c0,0,58.939,4.668,76.455,35.45c12.226,21.486,12.709,59.195,12.709,59.195
					l-94.639-20.681L1845.187,2767.514z"/>
			</g>
		</g>
		<g>
			<g>
				<path style="fill:#371A45;" d="M1947.052,2877.73l-120.608-26.353l7.205-97.314l12.524,0.991
					c6.709,0.532,66.125,6.216,86.333,41.729c13.662,24.009,14.324,63.545,14.346,65.215L1947.052,2877.73z M1852.977,2831.583
					l67.729,14.8c-1.411-12.173-4.338-27.412-9.929-37.236c-9.053-15.908-36.15-24.077-54.109-27.422L1852.977,2831.583z"/>
			</g>
		</g>
		<g>
			<g>
				<path style="fill:#FFFFFF;" d="M2164.093,2767.514c0,0-58.939,4.668-76.455,35.45c-12.226,21.486-12.709,59.195-12.709,59.195
					l94.639-20.681L2164.093,2767.514z"/>
			</g>
		</g>
		<g>
			<g>
				<path style="fill:#371A45;" d="M2062.228,2877.73l0.2-15.732c0.022-1.67,0.684-41.206,14.346-65.215
					c20.21-35.513,79.624-41.196,86.333-41.729l12.524-0.991l7.205,97.314L2062.228,2877.73z M2152.609,2781.695
					c-18.176,3.325-44.988,11.431-54.106,27.451c-5.615,9.868-8.54,25.088-9.944,37.241l67.744-14.805L2152.609,2781.695z"/>
			</g>
		</g>
		<g>
			<g>
				<path style="fill:#D66D27;" d="M2502.592,2838.104l-6.015,59.368l-62.104,613.477c-286.026,72.681-585.703,72.681-871.728,0
					l-7.367-72.748l-60.753-600.096c166.986,26.153,335.493,39.195,503.967,39.195
					C2167.098,2877.299,2335.606,2864.256,2502.592,2838.104z"/>
			</g>
		</g>
		<g style="opacity:0.5;">
			<g>
				<g>
					<path style="fill:#FFFFFF;" d="M2472.403,3070.905l-0.348,0.076c-77.391,17.31-156.615,30.085-235.834,39.241
						c-39.635,4.866-79.437,8.064-119.248,10.942c-19.917,1.235-39.844,2.432-59.787,2.998c-9.97,0.31-19.939,0.82-29.91,0.967
						l-29.915,0.432c-79.772,0.542-159.588-4.446-238.866-13.523c-68.673-7.847-137.388-18.889-204.565-33.867l-23.763-234.719
						c-11.854-1.724-23.702-3.494-35.541-5.347l23.54,232.52c-6.877,0.52-12.79,5.608-13.991,12.715
						c-1.414,8.367,4.221,16.294,12.588,17.71c1.538,0.259,3.034,0.491,4.559,0.742l12.991,128.325
						c-7.357-0.071-13.925,5.112-15.302,12.598c-1.542,8.379,4.001,16.421,12.381,17.961c2.071,0.381,4.081,0.715,6.124,1.077
						l12.01,118.628c-6.99,0.229-13.172,5.183-14.614,12.336c-1.684,8.352,3.722,16.489,12.074,18.171
						c1.948,0.393,3.823,0.728,5.74,1.096l2.654,26.216l7.367,72.749c148.71,37.788,301.11,55.881,453.364,54.375
						c-140.587-1.392-281.049-19.482-418.364-54.375l-7.367-72.749l-2.019-19.946c5.029,0.85,10.057,1.741,15.088,2.546
						c18.746,2.937,37.493,5.696,56.285,8.008c37.521,5.034,75.12,9.124,112.757,12.542c37.673,3.015,75.333,6.03,113.092,7.349
						c18.856,1.021,37.748,1.311,56.62,1.936c18.886,0.071,37.771,0.508,56.653,0.276c75.539-0.415,151.006-4.392,226.233-11.24
						c37.614-3.44,75.199-7.383,112.709-12.207c37.646-4.495,74.806-10.12,112.698-16.477c0.444-0.076,0.915-0.176,1.359-0.293
						c8.244-2.161,13.176-10.596,11.015-18.84c-2.161-8.242-10.596-13.174-18.84-11.013l-0.286,0.073
						c-35.701,9.358-72.734,16.511-109.472,23.354c-36.875,6.555-73.962,12.085-111.182,16.509
						c-74.408,9.236-149.374,13.931-224.323,14.651c-74.959,0.664-149.937-3.958-224.355-12.605
						c-37.202-4.434-74.243-10.088-111.042-16.833c-18.39-3.44-36.683-7.327-54.906-11.37c-7.703-1.736-15.384-3.542-23.042-5.398
						l-12.31-121.592c5.552,0.874,11.105,1.729,16.657,2.585c19.395,2.854,38.793,5.544,58.227,7.854
						c19.396,2.571,38.83,4.79,58.271,6.848l29.161,3.047l29.193,2.668c38.959,3.079,77.901,6.313,116.959,7.622
						c19.498,1.165,39.046,1.345,58.564,2.065c19.537,0.107,39.074,0.53,58.607,0.31c78.149-0.396,156.191-4.69,234.001-11.584
						c38.899-3.53,77.782-7.432,116.587-12.214c38.929-4.443,77.424-10.005,116.571-16.077c0.383-0.061,0.801-0.142,1.183-0.232
						c8.292-1.96,13.426-10.271,11.466-18.564c-1.96-8.291-10.271-13.425-18.563-11.465l-0.392,0.093
						c-74.872,17.695-151.864,30.525-228.806,39.568c-77.035,9.287-154.59,14.294-232.135,14.998
						c-77.547,0.637-155.124-4.209-232.153-13.059c-38.525-4.39-76.876-10.195-115.028-16.87
						c-19.061-3.45-38.043-7.271-56.968-11.24c-8.124-1.765-16.252-3.518-24.342-5.376l-13.297-131.348l19.91,2.974
						c19.954,2.776,39.911,5.398,59.897,7.705c39.926,4.924,79.907,9.172,119.952,12.581c40.058,3.23,80.117,6.445,120.284,7.903
						c20.056,1.179,40.158,1.487,60.238,2.175c20.095,0.21,40.196,0.569,60.29,0.381c80.401-0.381,160.655-5.002,240.688-11.943
						c40.009-3.582,79.995-7.542,119.922-12.227c40.031-4.404,79.677-9.878,119.902-15.698c0.372-0.054,0.781-0.127,1.154-0.21
						c8.282-1.853,13.495-10.068,11.643-18.352C2488.901,3074.264,2480.685,3069.052,2472.403,3070.905z"/>
				</g>
			</g>
			<g>
				<g>
					<path style="fill:#FFFFFF;" d="M2016.094,2877.213c5.833,0.032,11.666,0.085,17.498,0.085
						c156.559,0,313.118-11.277,468.458-33.848l0.542-5.347C2341.387,2863.351,2178.764,2876.342,2016.094,2877.213z"/>
				</g>
			</g>
		</g>
		<g style="opacity:0.35;">
			<g>
				<path style="fill:#371A45;" d="M2496.577,2897.471l-62.104,613.477c-286.026,72.681-585.703,72.681-871.728,0l-7.367-72.748
					c155.938,20.848,386.448,38.587,554.954-4.9c171.007-44.129,223.279-197.903,238.755-302.751
					c7.467-50.65-35.411-94.441-86.264-88.629c-405.167,46.359-722.38-98.293-722.38-98.293L2496.577,2897.471z"/>
			</g>
		</g>
		<g>
			<g>
				<path style="fill:#371A45;" d="M1998.612,3580.704c-147.92,0-295.837-18.271-439.644-54.814
					c-6.277-1.597-10.886-6.943-11.538-13.384l-68.127-672.847c-0.481-4.751,1.267-9.458,4.736-12.739
					c3.467-3.291,8.242-4.8,12.979-4.038c332.83,52.08,670.352,52.08,1003.186,0c4.719-0.718,9.514,0.752,12.979,4.038
					c3.469,3.281,5.217,7.988,4.736,12.739l-68.125,672.847c-0.652,6.44-5.261,11.787-11.536,13.384
					C2294.447,3562.433,2146.53,3580.704,1998.612,3580.704z M1577.001,3498.639c276.069,68.32,567.151,68.32,843.22,0
					l65.029-642.285c-323.04,48.555-650.234,48.555-973.279,0L1577.001,3498.639z M2434.459,3510.953h0.051H2434.459z"/>
			</g>
		</g>
		<g>
			<g>
				<path style="fill:#BC9D86;" d="M2522.915,2945.906L2522.915,2945.906c-347.007,59.466-701.6,59.466-1048.607,0h0
					l-19.838-163.642l0,0c360.499,57.292,727.784,57.292,1088.282,0l0,0L2522.915,2945.906z"/>
			</g>
		</g>
		<g>
			<g>
				<path style="fill:#FFB200;" d="M2542.763,2782.258l-19.863,163.634c-346.993,59.453-701.59,59.453-1048.583,0l-2.603-21.473
					l-0.205-1.678l-3.527-29.179l-13.494-111.304c62.398,9.932,125.003,18.117,187.778,24.589
					c92.913,9.624,186.1,15.446,279.39,17.501c25.651,0.616,51.302,0.89,76.988,0.89c28.767,0,57.604-0.377,86.372-1.096
					c93.221-2.328,186.408-8.39,279.252-18.253c31.165-3.322,62.295-7.055,93.392-11.199c4.829-0.617,9.692-1.302,14.521-1.952
					c5.137-0.719,10.274-1.438,15.411-2.192C2506.016,2787.943,2524.373,2785.169,2542.763,2782.258z"/>
			</g>
		</g>
		<g style="opacity:0.6;">
			<g>
				<g>
					<path style="fill:#FFFFFF;" d="M1487.017,2870.017c-2.335,18.478-6.823,38.627-15.301,54.418l-3.75-30.883l-13.482-111.302
						c62.409,9.934,125.02,18.111,187.766,24.599c92.92,9.63,186.111,15.442,279.403,17.503c25.646,0.608,51.292,0.878,76.972,0.878
						c28.788,0,57.61-0.372,86.399-1.081c93.225-2.331,186.382-8.413,279.234-18.246c36.053-3.852,72.005-8.245,107.923-13.178
						c-289.566,102.259-768.141,53.689-928.63,33.27C1515.747,2822.457,1490.531,2842.21,1487.017,2870.017z"/>
				</g>
			</g>
		</g>
		<g>
			<g>
				<path style="fill:#371A45;" d="M1998.612,3006.031c-176.047,0-352.092-14.98-526.907-44.937
					c-6.714-1.152-11.875-6.572-12.695-13.335l-19.839-163.643c-0.581-4.8,1.123-9.595,4.604-12.949
					c3.479-3.359,8.32-4.893,13.113-4.126c359.463,57.129,723.987,57.129,1083.445,0c4.788-0.767,9.631,0.767,13.113,4.121
					c3.481,3.359,5.186,8.154,4.604,12.954l-19.839,163.643c-0.82,6.763-5.981,12.183-12.695,13.335
					C2350.702,2991.051,2174.657,3006.031,1998.612,3006.031z M1488.221,2932.633c338.757,56.777,682.026,56.777,1020.779,0
					l16.003-132.007c-349.39,53.438-703.391,53.438-1052.786,0L1488.221,2932.633z M2522.914,2945.904h0.051H2522.914z"/>
			</g>
		</g>
		<g>
			<g>
				<path style="fill:#371A45;" d="M1523.251,3061.041c76.854,18.677,156.081,31.951,235.244,40.996
					c79.278,9.077,159.094,14.065,238.866,13.523l29.915-0.432c9.971-0.146,19.94-0.657,29.91-0.967
					c19.942-0.566,39.87-1.763,59.787-2.998c39.811-2.878,79.614-6.077,119.248-10.942c79.219-9.155,158.444-21.931,235.834-39.241
					l0.347-0.076c8.282-1.853,16.498,3.359,18.35,11.641c1.852,8.284-3.36,16.499-11.643,18.352
					c-0.373,0.083-0.781,0.156-1.154,0.21c-40.224,5.82-79.87,11.294-119.902,15.698c-39.927,4.685-79.914,8.645-119.922,12.227
					c-80.033,6.941-160.286,11.563-240.688,11.943c-20.094,0.188-40.195-0.171-60.29-0.381c-20.08-0.688-40.182-0.996-60.238-2.175
					c-40.168-1.458-80.226-4.673-120.284-7.903c-40.046-3.408-80.026-7.656-119.952-12.581c-19.986-2.307-39.943-4.929-59.897-7.705
					l-29.914-4.468c-10.021-1.443-19.908-2.991-30.108-4.714c-8.367-1.416-14.003-9.343-12.588-17.71
					c1.415-8.367,9.344-14.004,17.71-12.59c0.348,0.061,0.691,0.129,1.029,0.21L1523.251,3061.041z"/>
			</g>
		</g>
		<g>
			<g>
				<path style="fill:#371A45;" d="M1538.386,3220.66c9.026,2.434,18.492,4.819,27.84,7.053c9.383,2.212,18.845,4.214,28.287,6.267
					c18.924,3.97,37.907,7.791,56.968,11.24c38.152,6.675,76.503,12.48,115.028,16.87c77.029,8.85,154.606,13.696,232.153,13.059
					c77.545-0.703,155.099-5.71,232.135-14.998c76.942-9.043,153.934-21.873,228.806-39.568l0.392-0.093
					c8.292-1.96,16.604,3.174,18.563,11.465c1.96,8.293-3.174,16.604-11.466,18.564c-0.383,0.09-0.801,0.171-1.183,0.232
					c-39.147,6.072-77.642,11.633-116.571,16.077c-38.805,4.783-77.688,8.684-116.587,12.214
					c-77.811,6.895-155.852,11.189-234.002,11.584c-19.533,0.22-39.07-0.203-58.607-0.31c-19.518-0.72-39.065-0.901-58.564-2.065
					c-39.059-1.309-78.001-4.543-116.959-7.622l-29.193-2.668l-29.161-3.047c-19.442-2.058-38.875-4.277-58.271-6.848
					c-19.434-2.31-38.832-5-58.227-7.854c-9.693-1.494-19.385-2.949-29.077-4.602c-9.75-1.509-19.337-3.103-29.299-4.937
					c-8.379-1.541-13.922-9.583-12.381-17.961s9.584-13.923,17.963-12.38c0.404,0.073,0.802,0.164,1.193,0.266L1538.386,3220.66z"/>
			</g>
		</g>
		<g>
			<g>
				<path style="fill:#371A45;" d="M1554.539,3371.01c8.591,2.5,17.722,4.939,26.696,7.229c9.03,2.234,18.124,4.329,27.226,6.379
					c18.223,4.043,36.516,7.93,54.906,11.37c36.799,6.746,73.84,12.4,111.042,16.833c74.418,8.647,149.396,13.269,224.355,12.605
					c74.949-0.72,149.915-5.415,224.323-14.651c37.22-4.424,74.307-9.954,111.182-16.509c36.738-6.843,73.771-13.997,109.472-23.354
					l0.286-0.073c8.244-2.161,16.679,2.771,18.84,11.013c2.161,8.245-2.771,16.68-11.015,18.84
					c-0.444,0.117-0.916,0.217-1.359,0.293c-37.893,6.357-75.052,11.982-112.698,16.477c-37.51,4.824-75.095,8.767-112.709,12.207
					c-75.227,6.848-150.694,10.825-226.233,11.24c-18.882,0.232-37.767-0.205-56.654-0.276c-18.871-0.625-37.763-0.916-56.62-1.936
					c-37.758-1.318-75.419-4.333-113.092-7.349c-37.637-3.418-75.235-7.507-112.756-12.542c-18.793-2.312-37.54-5.071-56.285-8.008
					c-9.372-1.499-18.734-3.054-28.103-4.741c-9.435-1.58-18.672-3.218-28.359-5.171c-8.352-1.682-13.758-9.819-12.074-18.171
					c1.684-8.352,9.82-13.757,18.173-12.075c0.419,0.085,0.83,0.186,1.234,0.303L1554.539,3371.01z"/>
			</g>
		</g>
		<g>
			<g>
				<path style="fill:#371A45;" d="M1717.92,3099.721c0,0,27.329,2.104,34.883-10.531c13.669-22.864,10.712-76.632,14.832-76.632
					s-9.339,90.503,39.447,96.134L1717.92,3099.721z"/>
			</g>
		</g>
		<g>
			<g>
				<path style="fill:#371A45;" d="M2268.358,3099.721c0,0-27.33,2.104-34.883-10.531c-13.669-22.864-10.712-76.632-14.832-76.632
					c-4.12,0,9.339,90.503-39.447,96.134L2268.358,3099.721z"/>
			</g>
		</g>
		<g>
			<g>
				<path style="fill:#371A45;" d="M1717.92,3412.926c0,0,27.329,2.104,34.883-10.531c13.669-22.864,10.712-76.632,14.832-76.632
					s-9.339,90.503,39.447,96.134L1717.92,3412.926z"/>
			</g>
		</g>
		<g>
			<g>
				<path style="fill:#371A45;" d="M2268.358,3412.926c0,0-27.33,2.104-34.883-10.531c-13.669-22.864-10.712-76.632-14.832-76.632
					c-4.12,0,9.339,90.503-39.447,96.134L2268.358,3412.926z"/>
			</g>
		</g>
		<g>
			<g>
				<path style="fill:#371A45;" d="M2044.498,3279.81c0,0-25.43-5.585-37.17-14.466c-14.283-10.803,1.62-100.59-8.717-101.261
					c-7.397-0.48,11.143,115.727-45.163,116.551L2044.498,3279.81z"/>
			</g>
		</g>
		<g>
			<g>
				<path style="fill:#371A45;" d="M2044.498,3552.281c0,0-27.702-3.194-37.17-14.466c-11.536-13.733-2.287-91.032-12.269-88.26
					c-4.944,1.374,14.695,102.726-41.612,103.55L2044.498,3552.281z"/>
			</g>
		</g>
		<g>
			<g>
				<path style="fill:#371A45;" d="M2465.566,3235.668c0,0-9.654-10.859-19.914-9.281c-3.571,0.55-8.829,1.86-11.673-1.51
					c-9.888-11.719-5.807-78.785-14.466-77.273c-5.768,1.007,10.621,83.865-28.176,90.389c-5.897,0.992-7.151,7.984-14.867,8.388
					L2465.566,3235.668z"/>
			</g>
		</g>
		<g>
			<g>
				<path style="fill:#371A45;" d="M1544.153,3239.665c0,0,9.654-10.859,19.913-9.281c3.571,0.549,7.841-1.149,10.477-4.684
					c12.085-16.206,7.141-76.632,11.261-76.632c3.583,0-6.22,86.397,32.577,92.921c5.897,0.991,7.151,7.984,14.868,8.388
					L1544.153,3239.665z"/>
			</g>
		</g>
		<g style="opacity:0.35;">
			<g>
				<path style="fill:#371A45;" d="M2542.763,2782.258l-19.863,163.634c-346.993,59.453-701.59,59.453-1048.583,0l-2.603-21.473
					l-0.205-1.678c72.467,5.137,139.695,8.802,202.093,11.13c-64.214-21.679-50.275-96.064-50.275-96.064
					c4.076-31.987,57.022-46.85,127.537-49.967c125.208-5.548,149.866,68.837,116.065,117.879
					c-9.589,13.904-31.987,24.829-59.967,31.336c146.03,1.233,260.108-5.753,349.151-17.774c-6.302-4.075-11.302-8.63-14.692-13.562
					c-33.768-49.042-9.11-123.427,116.098-117.879c70.481,3.117,123.461,17.98,127.537,49.967c0,0,1.438,7.74,1.233,18.973
					c39.316-20.72,60.412-42.672,71.372-62.09c4.829-0.617,9.692-1.302,14.521-1.952c5.137-0.719,10.274-1.438,15.411-2.192
					C2506.016,2787.943,2524.373,2785.169,2542.763,2782.258z"/>
			</g>
		</g>
		<g>
			<g>
				<path style="fill:#FFFFFF;" d="M1623.325,2803.558c0,0-14.761,78.789,56.084,97.84c70.845,19.051,164.897,2.922,187.53-29.922
					c33.791-49.037,9.129-123.432-116.09-117.877C1680.365,2756.726,1627.411,2771.56,1623.325,2803.558z"/>
			</g>
		</g>
		<g style="opacity:0.35;">
			<g>
				<path style="fill:#371A45;" d="M1866.928,2871.472c-22.638,32.843-116.681,48.973-187.504,29.932
					c-70.858-19.042-56.097-97.845-56.097-97.845c0.308-2.329,0.856-4.555,1.644-6.712c5.274,21.918,19.385,45.959,54.454,55.377
					c70.823,19.042,164.866,2.911,187.504-29.932c3.732-5.411,6.781-11.165,9.007-17.055
					C1884.874,2826.711,1880.867,2851.232,1866.928,2871.472z"/>
			</g>
		</g>
		<g>
			<g>
				<path style="fill:#371A45;" d="M1744.781,2924.488c-23.567,0-47.427-2.729-69.268-8.604
					c-66.355-17.847-72.866-82.563-67.007-114.678c5.154-37.598,52.815-58.652,141.677-62.593
					c90.369-3.994,123.918,31.504,135.845,53.032c14.88,26.86,12.3,60.713-6.738,88.34
					C1860.304,2907.54,1803.473,2924.488,1744.781,2924.488z M1638.075,2806.295c-0.53,2.969-10.977,65.503,45.232,80.615
					c67.251,18.096,153.511,1.846,171.282-23.945c12.722-18.467,14.666-39.692,5.198-56.782
					c-14.57-26.299-54.004-39.985-108.274-37.598c-80.527,3.569-111.331,21.392-113.306,36.875L1638.075,2806.295z
					 M1623.326,2803.561h0.049H1623.326z"/>
			</g>
		</g>
		<g>
			<g>
				<path style="fill:#FFFFFF;" d="M2385.048,2803.558c0,0,14.761,78.789-56.084,97.84c-70.844,19.051-164.897,2.922-187.53-29.922
					c-33.791-49.037-9.128-123.432,116.09-117.877C2328.009,2756.726,2380.963,2771.56,2385.048,2803.558z"/>
			</g>
		</g>
		<g style="opacity:0.35;">
			<g>
				<path style="fill:#371A45;" d="M2328.958,2901.404c-70.823,19.041-164.9,2.911-187.538-29.932
					c-13.939-20.24-17.911-44.761-9.007-66.269c2.226,5.925,5.274,11.678,9.007,17.124c22.638,32.844,116.715,48.974,187.538,29.898
					c35.069-9.418,49.179-33.46,54.453-55.377c0.788,2.157,1.336,4.384,1.644,6.712
					C2385.055,2803.56,2399.815,2882.363,2328.958,2901.404z"/>
			</g>
		</g>
		<g>
			<g>
				<path style="fill:#371A45;" d="M2263.59,2924.488c-58.696,0-115.52-16.948-134.507-44.502
					c-19.038-27.627-21.619-61.479-6.738-88.34c11.926-21.528,45.427-57.021,135.845-53.032
					c88.862,3.94,136.523,24.995,141.677,62.593c5.859,32.114-0.652,96.831-67.007,114.678
					C2311.024,2921.754,2287.152,2924.488,2263.59,2924.488z M2244.862,2768.312c-48.047,0-82.8,13.55-96.274,37.871
					c-9.468,17.09-7.524,38.315,5.198,56.782c17.771,25.791,104.031,42.056,171.282,23.945c56.79-15.269,45.735-77.93,45.237-80.586
					l-0.137-0.864c-1.975-15.483-32.778-33.306-113.306-36.875C2252.78,2768.404,2248.773,2768.312,2244.862,2768.312z"/>
			</g>
		</g>
		<g>
			<g>
				<path style="fill:none;stroke:#371A45;stroke-width:30.8201;stroke-linecap:round;stroke-miterlimit:10;" d="M1140.818,1935.453
					"/>
			</g>
		</g>
		<g>
			<g>
				<path style="fill:none;stroke:#371A45;stroke-width:30.8201;stroke-linecap:round;stroke-miterlimit:10;" d="M1454.469,2782.264
					"/>
			</g>
		</g>
		<g style="opacity:0.3;">
			<g>
				<path style="fill:#FFFFFF;" d="M1984.667,576.017c314.653-18.543,546.959,144.414,608.562,349.259
					c51.83,172.348-144.33,150.171-257.769,80.159s-205.861-166.82-388.189-200.08
					C1634.257,748.254,1800.752,586.855,1984.667,576.017z"/>
			</g>
		</g>
		<g style="opacity:0.3;">
			<g>
				<path style="fill:#FFFFFF;" d="M2757.877,1116.486c126.512,100.68,115.216,220.414,82.938,293.464
					c-30.85,69.818-104.645,20.641-125.862-31.764c-21.217-52.405-28.525-108.697-82.52-165.823
					C2539.739,1114.292,2696.738,1067.83,2757.877,1116.486z"/>
			</g>
		</g>
	</g>
</g>
</svg>
